<?xml version="1.0" encoding="iso-8859-1"?>
<!-- Generator: Adobe Illustrator 19.0.0, SVG Export Plug-In . SVG Version: 6.00 Build 0)  -->
<svg version="1.1" id="Capa_1" xmlns="http://www.w3.org/2000/svg" xmlns:xlink="http://www.w3.org/1999/xlink" x="0px" y="0px"
	 viewBox="0 0 511.999 511.999" style="enable-background:new 0 0 511.999 511.999;" xml:space="preserve">
<g>
	<g>
		<path fill="#fff" d="M400.574,362.613l54.128-168.968l52.905-52.906c5.858-5.858,5.858-15.355,0-21.213L392.474,4.394
			c-5.857-5.858-15.355-5.858-21.213,0l-52.906,52.905l-168.968,54.128c-4.372,1.401-7.862,4.727-9.472,9.027L0.955,491.741
			c-3.617,9.671,3.468,20.258,14.051,20.258c0.004,0,0.007,0,0.011,0h448.808c8.284,0,15-6.716,15-15c0-8.284-6.716-15-15-15H97.873
			l293.672-109.912C395.847,370.476,399.173,366.986,400.574,362.613z M381.867,36.214l93.92,93.919l-34.263,34.263l-93.92-93.92
			L381.867,36.214z M74.5,458.714l136.36-136.359c25.158,15.486,58.308,12.138,79.8-9.354c25.33-25.33,25.331-66.327,0-91.657
			c-25.271-25.27-66.388-25.271-91.657,0c-21.819,21.82-24.697,55.023-9.369,79.815L53.287,437.502l112.177-299.723l156.791-50.227
			c15.645,15.646,92.413,92.414,102.193,102.194l-50.227,156.791L74.5,458.714z M220.214,242.556
			c13.573-13.572,35.658-13.574,49.232,0c13.604,13.603,13.606,35.625,0,49.231c-13.572,13.574-35.658,13.573-49.232,0
			C206.61,278.183,206.607,256.163,220.214,242.556z"/>
	</g>
</g>
<g>
</g>
<g>
</g>
<g>
</g>
<g>
</g>
<g>
</g>
<g>
</g>
<g>
</g>
<g>
</g>
<g>
</g>
<g>
</g>
<g>
</g>
<g>
</g>
<g>
</g>
<g>
</g>
<g>
</g>
</svg>
